<mxfile host="www.draw.io" modified="2020-02-16T20:36:08.839Z" agent="Mozilla/5.0 (Macintosh; Intel Mac OS X 10_13_6) AppleWebKit/537.36 (KHTML, like Gecko) Chrome/79.0.3945.130 Safari/537.36" etag="0IHZawtFAHictirVcb-0" version="12.7.0" type="github">
  <diagram id="C5RBs43oDa-KdzZeNtuy" name="Page-1">
    <mxGraphModel dx="2951" dy="1729" grid="1" gridSize="10" guides="1" tooltips="1" connect="1" arrows="1" fold="1" page="1" pageScale="1" pageWidth="1600" pageHeight="900" math="0" shadow="0">
      <root>
        <mxCell id="WIyWlLk6GJQsqaUBKTNV-0"/>
        <mxCell id="WIyWlLk6GJQsqaUBKTNV-1" parent="WIyWlLk6GJQsqaUBKTNV-0"/>
        <mxCell id="g5wBYTICupGd_betvSHc-27" style="edgeStyle=orthogonalEdgeStyle;rounded=0;orthogonalLoop=1;jettySize=auto;html=1;exitX=0;exitY=0.5;exitDx=0;exitDy=0;entryX=0.5;entryY=1;entryDx=0;entryDy=0;" edge="1" parent="WIyWlLk6GJQsqaUBKTNV-1" source="g5wBYTICupGd_betvSHc-19" target="g5wBYTICupGd_betvSHc-16">
          <mxGeometry relative="1" as="geometry"/>
        </mxCell>
        <mxCell id="g5wBYTICupGd_betvSHc-19" value="" style="rounded=0;whiteSpace=wrap;html=1;" vertex="1" parent="WIyWlLk6GJQsqaUBKTNV-1">
          <mxGeometry x="655.38" y="500" width="180" height="150" as="geometry"/>
        </mxCell>
        <mxCell id="WIyWlLk6GJQsqaUBKTNV-3" value="URL Frontier" style="rounded=1;whiteSpace=wrap;html=1;fontSize=12;glass=0;strokeWidth=1;shadow=0;fillColor=#d5e8d4;strokeColor=#82b366;" parent="WIyWlLk6GJQsqaUBKTNV-1" vertex="1">
          <mxGeometry x="460" y="270" width="120" height="180" as="geometry"/>
        </mxCell>
        <mxCell id="g5wBYTICupGd_betvSHc-1" value="&lt;span style=&quot;white-space: normal&quot;&gt;Fetcher&lt;/span&gt;" style="strokeWidth=2;html=1;shape=mxgraph.flowchart.multi-document;whiteSpace=wrap;align=center;" vertex="1" parent="WIyWlLk6GJQsqaUBKTNV-1">
          <mxGeometry x="800" y="320" width="181" height="60" as="geometry"/>
        </mxCell>
        <mxCell id="g5wBYTICupGd_betvSHc-3" value="" style="endArrow=classic;html=1;exitX=1;exitY=0.5;exitDx=0;exitDy=0;entryX=0;entryY=0.5;entryDx=0;entryDy=0;entryPerimeter=0;" edge="1" parent="WIyWlLk6GJQsqaUBKTNV-1" source="WIyWlLk6GJQsqaUBKTNV-3" target="g5wBYTICupGd_betvSHc-1">
          <mxGeometry width="50" height="50" relative="1" as="geometry">
            <mxPoint x="630" y="710" as="sourcePoint"/>
            <mxPoint x="680" y="660" as="targetPoint"/>
          </mxGeometry>
        </mxCell>
        <mxCell id="g5wBYTICupGd_betvSHc-4" value="&lt;span style=&quot;white-space: normal&quot;&gt;Renderer&lt;/span&gt;" style="strokeWidth=2;html=1;shape=mxgraph.flowchart.multi-document;whiteSpace=wrap;align=center;" vertex="1" parent="WIyWlLk6GJQsqaUBKTNV-1">
          <mxGeometry x="1070" y="320" width="181" height="60" as="geometry"/>
        </mxCell>
        <mxCell id="g5wBYTICupGd_betvSHc-5" value="&lt;font style=&quot;font-size: 9px&quot;&gt;DNS Resolver&lt;br&gt;(Cached DNS)&lt;/font&gt;" style="rounded=0;whiteSpace=wrap;html=1;" vertex="1" parent="WIyWlLk6GJQsqaUBKTNV-1">
          <mxGeometry x="840.75" y="260" width="99.5" height="40" as="geometry"/>
        </mxCell>
        <mxCell id="g5wBYTICupGd_betvSHc-6" value="Internet" style="ellipse;shape=cloud;whiteSpace=wrap;html=1;" vertex="1" parent="WIyWlLk6GJQsqaUBKTNV-1">
          <mxGeometry x="835.38" y="190" width="110.25" height="40" as="geometry"/>
        </mxCell>
        <mxCell id="g5wBYTICupGd_betvSHc-32" style="edgeStyle=orthogonalEdgeStyle;rounded=0;orthogonalLoop=1;jettySize=auto;html=1;exitX=0;exitY=0.5;exitDx=0;exitDy=0;entryX=1;entryY=0.5;entryDx=0;entryDy=0;" edge="1" parent="WIyWlLk6GJQsqaUBKTNV-1" source="g5wBYTICupGd_betvSHc-7" target="g5wBYTICupGd_betvSHc-19">
          <mxGeometry relative="1" as="geometry"/>
        </mxCell>
        <mxCell id="g5wBYTICupGd_betvSHc-7" value="" style="rounded=0;whiteSpace=wrap;html=1;" vertex="1" parent="WIyWlLk6GJQsqaUBKTNV-1">
          <mxGeometry x="890" y="500" width="180" height="150" as="geometry"/>
        </mxCell>
        <mxCell id="g5wBYTICupGd_betvSHc-8" value="HTML Parser" style="rounded=0;whiteSpace=wrap;html=1;" vertex="1" parent="WIyWlLk6GJQsqaUBKTNV-1">
          <mxGeometry x="920" y="530" width="120" height="40" as="geometry"/>
        </mxCell>
        <mxCell id="g5wBYTICupGd_betvSHc-9" value="Extract All URLs" style="rounded=0;whiteSpace=wrap;html=1;" vertex="1" parent="WIyWlLk6GJQsqaUBKTNV-1">
          <mxGeometry x="685.38" y="520" width="120" height="40" as="geometry"/>
        </mxCell>
        <mxCell id="g5wBYTICupGd_betvSHc-30" style="edgeStyle=orthogonalEdgeStyle;rounded=0;orthogonalLoop=1;jettySize=auto;html=1;entryX=0;entryY=0.5;entryDx=0;entryDy=0;" edge="1" parent="WIyWlLk6GJQsqaUBKTNV-1" source="g5wBYTICupGd_betvSHc-10" target="g5wBYTICupGd_betvSHc-29">
          <mxGeometry relative="1" as="geometry"/>
        </mxCell>
        <mxCell id="g5wBYTICupGd_betvSHc-10" value="Extract Required Content" style="rounded=0;whiteSpace=wrap;html=1;" vertex="1" parent="WIyWlLk6GJQsqaUBKTNV-1">
          <mxGeometry x="920" y="580" width="120" height="40" as="geometry"/>
        </mxCell>
        <mxCell id="g5wBYTICupGd_betvSHc-11" value="Sanitize URL Format" style="rounded=0;whiteSpace=wrap;html=1;" vertex="1" parent="WIyWlLk6GJQsqaUBKTNV-1">
          <mxGeometry x="685.38" y="580" width="120" height="40" as="geometry"/>
        </mxCell>
        <mxCell id="g5wBYTICupGd_betvSHc-42" value="" style="edgeStyle=orthogonalEdgeStyle;rounded=0;orthogonalLoop=1;jettySize=auto;html=1;entryX=0;entryY=0.5;entryDx=0;entryDy=0;" edge="1" parent="WIyWlLk6GJQsqaUBKTNV-1" source="g5wBYTICupGd_betvSHc-14" target="g5wBYTICupGd_betvSHc-16">
          <mxGeometry relative="1" as="geometry">
            <mxPoint x="189" y="350" as="targetPoint"/>
          </mxGeometry>
        </mxCell>
        <mxCell id="g5wBYTICupGd_betvSHc-14" value="Input URLs&lt;br&gt;(Files)" style="shape=cube;whiteSpace=wrap;html=1;boundedLbl=1;backgroundOutline=1;darkOpacity=0.05;darkOpacity2=0.1;size=5;" vertex="1" parent="WIyWlLk6GJQsqaUBKTNV-1">
          <mxGeometry x="-1" y="305" width="110" height="90" as="geometry"/>
        </mxCell>
        <mxCell id="g5wBYTICupGd_betvSHc-16" value="URL Duplicate Filter" style="shape=process;whiteSpace=wrap;html=1;backgroundOutline=1;fillColor=#fff2cc;strokeColor=#d6b656;" vertex="1" parent="WIyWlLk6GJQsqaUBKTNV-1">
          <mxGeometry x="200" y="260" width="130" height="170" as="geometry"/>
        </mxCell>
        <mxCell id="g5wBYTICupGd_betvSHc-22" value="" style="shape=cylinder;whiteSpace=wrap;html=1;boundedLbl=1;backgroundOutline=1;" vertex="1" parent="WIyWlLk6GJQsqaUBKTNV-1">
          <mxGeometry x="490" y="99.57" width="60" height="80" as="geometry"/>
        </mxCell>
        <mxCell id="g5wBYTICupGd_betvSHc-29" value="" style="shape=cylinder;whiteSpace=wrap;html=1;boundedLbl=1;backgroundOutline=1;" vertex="1" parent="WIyWlLk6GJQsqaUBKTNV-1">
          <mxGeometry x="1191" y="560" width="60" height="80" as="geometry"/>
        </mxCell>
        <mxCell id="g5wBYTICupGd_betvSHc-36" value="&lt;span style=&quot;white-space: normal&quot;&gt;Bloom Filter(BF)&lt;/span&gt;" style="shape=tape;whiteSpace=wrap;html=1;size=0.2771428571428601;" vertex="1" parent="WIyWlLk6GJQsqaUBKTNV-1">
          <mxGeometry x="-1" y="89.57" width="120" height="100" as="geometry"/>
        </mxCell>
        <mxCell id="g5wBYTICupGd_betvSHc-60" style="edgeStyle=orthogonalEdgeStyle;rounded=0;orthogonalLoop=1;jettySize=auto;html=1;exitX=1;exitY=0.5;exitDx=0;exitDy=0;entryX=0.5;entryY=0;entryDx=0;entryDy=0;" edge="1" parent="WIyWlLk6GJQsqaUBKTNV-1" source="g5wBYTICupGd_betvSHc-48" target="g5wBYTICupGd_betvSHc-22">
          <mxGeometry relative="1" as="geometry"/>
        </mxCell>
        <mxCell id="g5wBYTICupGd_betvSHc-48" value="&lt;span style=&quot;white-space: normal&quot;&gt;If present, in BF&lt;br&gt;double check in DB&lt;br&gt;&lt;/span&gt;" style="rhombus;whiteSpace=wrap;html=1;" vertex="1" parent="WIyWlLk6GJQsqaUBKTNV-1">
          <mxGeometry x="340" y="-140" width="180" height="110" as="geometry"/>
        </mxCell>
        <mxCell id="g5wBYTICupGd_betvSHc-64" style="edgeStyle=orthogonalEdgeStyle;rounded=0;orthogonalLoop=1;jettySize=auto;html=1;exitX=1;exitY=0.5;exitDx=0;exitDy=0;entryX=0;entryY=0.5;entryDx=0;entryDy=0;" edge="1" parent="WIyWlLk6GJQsqaUBKTNV-1" source="g5wBYTICupGd_betvSHc-49" target="g5wBYTICupGd_betvSHc-22">
          <mxGeometry relative="1" as="geometry"/>
        </mxCell>
        <mxCell id="g5wBYTICupGd_betvSHc-65" style="edgeStyle=orthogonalEdgeStyle;rounded=0;orthogonalLoop=1;jettySize=auto;html=1;exitX=1;exitY=0.5;exitDx=0;exitDy=0;entryX=0;entryY=0.5;entryDx=0;entryDy=0;" edge="1" parent="WIyWlLk6GJQsqaUBKTNV-1" source="g5wBYTICupGd_betvSHc-49" target="WIyWlLk6GJQsqaUBKTNV-3">
          <mxGeometry relative="1" as="geometry"/>
        </mxCell>
        <mxCell id="g5wBYTICupGd_betvSHc-49" value="check URL &lt;br&gt;present in BF" style="rhombus;whiteSpace=wrap;html=1;" vertex="1" parent="WIyWlLk6GJQsqaUBKTNV-1">
          <mxGeometry x="200" y="99.57" width="130" height="80" as="geometry"/>
        </mxCell>
        <mxCell id="g5wBYTICupGd_betvSHc-67" value="" style="endArrow=classic;startArrow=classic;html=1;exitX=1;exitY=0.5;exitDx=0;exitDy=0;exitPerimeter=0;entryX=0;entryY=0.5;entryDx=0;entryDy=0;" edge="1" parent="WIyWlLk6GJQsqaUBKTNV-1" source="g5wBYTICupGd_betvSHc-36" target="g5wBYTICupGd_betvSHc-49">
          <mxGeometry width="50" height="50" relative="1" as="geometry">
            <mxPoint x="150" y="170" as="sourcePoint"/>
            <mxPoint x="200" y="120" as="targetPoint"/>
          </mxGeometry>
        </mxCell>
        <mxCell id="g5wBYTICupGd_betvSHc-69" value="If not present" style="text;html=1;strokeColor=none;fillColor=none;align=center;verticalAlign=middle;whiteSpace=wrap;rounded=0;" vertex="1" parent="WIyWlLk6GJQsqaUBKTNV-1">
          <mxGeometry x="351" y="114" width="90" height="20" as="geometry"/>
        </mxCell>
      </root>
    </mxGraphModel>
  </diagram>
</mxfile>
